<svg width="180" height="99" viewBox="0 0 180 99" fill="none" xmlns="http://www.w3.org/2000/svg">
<path d="M16 3.90909L29.4091 79.7273H30.4545L68.8636 3.90909H84.0455L35.0909 97H18.8636L0.818182 3.90909H16ZM80.9432 97L92.5795 27.1818H106.17L94.5341 97H80.9432ZM102.216 16.2727C99.8523 16.2727 97.8523 15.4848 96.2159 13.9091C94.6098 12.303 93.8674 10.3939 93.9886 8.18182C94.1098 5.93939 95.0492 4.0303 96.8068 2.45454C98.5644 0.84848 100.61 0.0454483 102.943 0.0454483C105.307 0.0454483 107.292 0.84848 108.898 2.45454C110.504 4.0303 111.261 5.93939 111.17 8.18182C111.049 10.3939 110.11 12.303 108.352 13.9091C106.625 15.4848 104.58 16.2727 102.216 16.2727ZM142.045 98.4091C135.258 98.4091 129.697 96.8788 125.364 93.8182C121.03 90.7273 118.015 86.4697 116.318 81.0455C114.621 75.6212 114.348 69.4091 115.5 62.4091C116.652 55.3182 119 49.0606 122.545 43.6364C126.121 38.1818 130.591 33.9242 135.955 30.8636C141.348 27.803 147.333 26.2727 153.909 26.2727C159.212 26.2727 163.773 27.2576 167.591 29.2273C171.409 31.1667 174.303 33.8939 176.273 37.4091C178.242 40.9242 179.091 45.0303 178.818 49.7273H165.591C165.379 46.4545 164.167 43.6364 161.955 41.2727C159.742 38.9091 156.485 37.7273 152.182 37.7273C148.394 37.7273 144.909 38.7273 141.727 40.7273C138.545 42.697 135.864 45.5151 133.682 49.1818C131.5 52.8182 130.015 57.1212 129.227 62.0909C128.379 67.1818 128.424 71.5758 129.364 75.2727C130.303 78.9697 132.03 81.8333 134.545 83.8636C137.061 85.8939 140.227 86.9091 144.045 86.9091C146.652 86.9091 149.076 86.4394 151.318 85.5C153.591 84.5303 155.591 83.1515 157.318 81.3636C159.076 79.5758 160.439 77.4242 161.409 74.9091H174.682C173.379 79.4242 171.197 83.4545 168.136 87C165.106 90.5455 161.379 93.3333 156.955 95.3636C152.53 97.3939 147.561 98.4091 142.045 98.4091Z" fill="#4A4A4A"/>
</svg>
